<svg width="114" height="115" viewBox="0 0 114 115" fill="none" xmlns="http://www.w3.org/2000/svg">
<path fill-rule="evenodd" clip-rule="evenodd" d="M97.3761 17.0048C86.6563 6.28497 72.4267 0.380906 57.2449 0.353699C25.9561 0.353699 0.516942 25.8201 0.489734 57.0816C0.489734 67.094 3.10166 76.8344 8.05345 85.4592L0 114.871L30.0916 106.98C38.39 111.497 47.7222 113.891 57.2177 113.891H57.2449C88.5064 113.891 113.973 88.4248 114 57.136C114 41.9814 108.096 27.7246 97.3761 17.0048ZM57.2449 104.314C48.7561 104.314 40.4577 102.029 33.2205 97.7298L31.5064 96.6959L13.6582 101.376L18.4196 83.9628L17.3041 82.1671C12.5699 74.6577 10.094 65.9785 10.094 57.0816C10.094 31.0711 31.2616 9.93079 57.2721 9.93079C69.8692 9.93079 81.7045 14.8554 90.6286 23.7523C99.5255 32.6764 104.423 44.5117 104.423 57.1088C104.396 83.1465 83.2282 104.314 57.2449 104.314V104.314ZM83.1193 68.9714C81.7045 68.264 74.7394 64.8358 73.4334 64.3461C72.1274 63.8835 71.1752 63.6387 70.2501 65.0535C69.2979 66.4683 66.5771 69.6788 65.7609 70.6038C64.9446 71.5561 64.1012 71.6649 62.6864 70.9575C61.2716 70.2501 56.7007 68.7537 51.2864 63.9107C47.0692 60.1561 44.2396 55.5036 43.3962 54.0888C42.58 52.674 43.3146 51.9122 44.022 51.2048C44.6477 50.579 45.4367 49.5451 46.1441 48.7289C46.8515 47.9127 47.0964 47.3141 47.5589 46.3618C48.0215 45.4095 47.8038 44.5933 47.4501 43.8859C47.0964 43.1785 44.2668 36.1862 43.0697 33.3566C41.927 30.5814 40.757 30.9623 39.8864 30.9351C39.0702 30.8807 38.1179 30.8807 37.1656 30.8807C36.2134 30.8807 34.6897 31.2344 33.3838 32.6492C32.0778 34.064 28.432 37.4921 28.432 44.4845C28.432 51.4769 33.5198 58.1971 34.2272 59.1494C34.9346 60.1017 44.2124 74.4129 58.442 80.5618C61.8157 82.031 64.4549 82.9017 66.5227 83.5547C69.9236 84.643 72.9981 84.4797 75.4468 84.126C78.1675 83.7179 83.8267 80.6979 85.0239 77.3785C86.1938 74.0592 86.1938 71.2296 85.8401 70.631C85.4864 70.0325 84.5341 69.6788 83.1193 68.9714V68.9714Z" fill="#25D366"/>
</svg>
